<?xml version="1.0" standalone="no"?>
<!DOCTYPE svg PUBLIC "-//W3C//DTD SVG 20010904//EN"
 "http://www.w3.org/TR/2001/REC-SVG-20010904/DTD/svg10.dtd">
<svg version="1.0" xmlns="http://www.w3.org/2000/svg"
 width="300.000000pt" height="300.000000pt" viewBox="0 0 300.000000 300.000000"
 preserveAspectRatio="xMidYMid meet">

<g transform="translate(0.000000,300.000000) scale(0.100000,-0.100000)"
fill="#000000" stroke="none">
<path d="M297 2813 c3 -21 9 -45 14 -54 9 -18 180 -92 329 -142 94 -31 296
-84 404 -105 39 -7 40 -9 61 -77 38 -124 94 -199 185 -245 22 -11 41 -20 44
-20 5 0 27 72 23 76 -1 1 -20 11 -42 22 -85 43 -163 146 -181 238 -4 24 -12
33 -32 38 -172 38 -174 38 -287 71 -49 14 -109 35 -132 46 -24 10 -47 19 -53
19 -15 0 -224 102 -287 140 l-52 31 6 -38z"/>
<path d="M2718 2825 c-69 -46 -254 -134 -323 -155 -22 -7 -44 -16 -50 -20 -5
-3 -30 -12 -55 -19 -25 -8 -66 -20 -92 -28 -25 -8 -57 -16 -70 -19 -12 -2 -63
-14 -112 -27 l-90 -22 -11 -46 c-28 -108 -102 -190 -223 -245 -2 -1 4 -18 12
-39 l16 -36 51 27 c73 40 131 110 163 194 14 39 26 80 26 90 0 14 10 22 38 28
20 5 98 24 172 41 160 39 339 97 470 153 52 23 96 42 98 43 6 5 29 105 23 104
-3 0 -22 -11 -43 -24z"/>
<path d="M146 2813 c-13 -14 -6 -166 10 -199 33 -68 83 -111 164 -137 77 -25
202 -56 325 -82 70 -14 69 -14 -90 -9 -141 4 -250 14 -322 30 -15 3 -23 0 -23
-9 0 -27 61 -135 101 -181 69 -78 76 -80 289 -73 102 4 196 10 210 13 16 4 22
3 15 -3 -23 -23 -299 -82 -382 -83 -23 0 -45 -5 -49 -11 -9 -15 68 -93 133
-135 74 -48 128 -61 196 -45 57 13 180 67 229 102 16 12 31 19 34 16 7 -7
-145 -144 -204 -184 -30 -19 -50 -39 -45 -43 26 -23 181 -70 230 -70 33 0 110
51 147 97 10 13 21 22 24 19 7 -7 -72 -127 -103 -156 -13 -13 -22 -27 -19 -31
8 -14 158 -11 177 4 10 6 28 39 42 72 29 71 33 44 5 -35 -11 -30 -19 -58 -20
-62 0 -12 48 -10 71 2 10 6 19 8 19 4 0 -16 -52 -94 -72 -109 l-22 -15 22 0
c17 0 22 -6 22 -25 0 -14 -6 -35 -13 -48 -6 -12 -13 -24 -14 -26 -1 -2 -19 4
-38 13 -42 20 -59 16 -76 -16 -12 -22 -11 -23 8 -5 22 19 49 22 58 6 4 -6 0
-16 -8 -22 -14 -12 -31 -47 -22 -47 3 0 14 9 26 21 28 28 52 20 66 -21 l12
-35 0 30 c1 17 -3 36 -8 44 -6 9 -1 28 14 55 24 43 45 58 45 32 0 -29 17 -17
33 24 29 74 36 42 11 -51 -28 -105 -75 -204 -121 -259 -18 -21 -33 -41 -33
-45 0 -15 92 5 121 26 l29 20 0 -90 c0 -51 4 -91 10 -91 15 0 78 89 85 121 10
46 25 34 25 -20 0 -65 15 -143 39 -194 l19 -42 16 37 c18 42 32 105 41 192 l7
59 29 -59 c15 -33 38 -69 49 -79 33 -30 42 -5 35 94 l-5 85 22 -21 c13 -12 36
-26 51 -32 29 -11 77 -15 77 -6 0 3 -16 26 -37 52 -46 61 -89 156 -114 251
-10 41 -19 80 -19 85 0 20 29 -16 35 -44 8 -35 25 -48 25 -20 0 36 25 23 49
-25 15 -33 19 -50 12 -57 -6 -6 -11 -20 -11 -30 0 -17 3 -16 21 7 25 32 36 32
66 4 28 -27 31 -10 2 20 -35 38 4 60 44 24 19 -17 20 -16 8 6 -17 32 -34 36
-72 17 -31 -16 -33 -16 -46 1 -7 10 -13 26 -13 35 0 10 -3 24 -6 33 -4 12 0
16 16 16 l23 0 -24 23 c-31 28 -73 96 -65 104 3 4 12 1 18 -5 17 -17 68 -15
68 2 0 7 -6 29 -14 47 -7 19 -17 48 -20 64 -10 41 8 21 23 -26 22 -68 41 -79
136 -79 47 0 85 2 85 4 0 3 -23 35 -50 71 -28 36 -57 80 -66 98 -15 27 -9 24
46 -26 75 -68 105 -76 198 -53 68 17 152 53 152 64 -1 4 -27 24 -59 45 -54 35
-191 157 -191 170 0 3 31 -12 69 -34 80 -47 198 -89 248 -89 55 0 154 53 217
116 31 31 55 62 53 68 -2 6 -35 14 -73 18 -107 10 -375 71 -362 83 1 1 41 -1
88 -5 47 -5 142 -9 213 -9 120 -1 130 0 166 24 44 30 85 84 130 172 29 59 29
79 -1 68 -32 -12 -336 -35 -438 -33 -40 0 -37 2 30 14 210 39 381 94 428 137
l32 31 0 113 c0 62 -2 113 -5 113 -3 0 -50 -22 -104 -50 -188 -95 -472 -191
-695 -236 l-86 -17 -10 -41 c-37 -143 -97 -221 -214 -278 -40 -19 -48 -20 -56
-8 -15 23 -40 149 -43 210 -2 53 -1 55 28 60 23 4 29 10 27 25 -4 29 -40 55
-73 55 -16 0 -49 5 -74 12 -38 10 -50 9 -79 -4 -37 -18 -33 -8 -96 -238 -18
-63 -36 -119 -41 -125 -15 -16 -112 41 -163 95 -51 55 -81 109 -100 182 l-13
53 -123 27 c-277 62 -556 164 -737 271 -34 19 -64 33 -67 30z m1419 -313 c3
-5 -3 -10 -14 -10 -11 0 -23 5 -26 10 -3 6 3 10 14 10 11 0 23 -4 26 -10z"/>
<path d="M1292 658 c-17 -17 -17 -429 0 -446 16 -16 100 -16 116 0 17 17 17
429 0 446 -7 7 -33 12 -58 12 -25 0 -51 -5 -58 -12z m93 -223 l0 -200 -32 -3
-33 -3 0 206 0 206 33 -3 32 -3 0 -200z"/>
<path d="M2056 654 c-11 -10 -16 -34 -16 -70 0 -45 8 -71 45 -144 38 -77 45
-98 45 -150 0 -57 -1 -60 -25 -60 -22 0 -25 4 -25 35 0 28 -4 35 -20 35 -16 0
-20 -7 -20 -34 0 -45 22 -66 69 -66 51 0 61 14 61 87 0 55 -6 75 -45 153 -37
74 -45 99 -45 145 0 52 1 55 24 55 21 0 25 -5 28 -37 2 -27 8 -39 21 -41 26
-5 25 83 -2 98 -29 15 -77 12 -95 -6z"/>
<path d="M844 633 c3 -16 8 -57 12 -93 9 -80 15 -124 38 -305 3 -23 56 -36 56
-13 0 17 27 253 40 343 5 39 9 76 10 83 0 19 -28 14 -34 -5 -4 -14 -36 -317
-36 -345 0 -5 -4 -8 -8 -8 -8 0 -27 151 -39 308 -5 53 -8 62 -25 62 -16 0 -19
-5 -14 -27z"/>
<path d="M1072 538 l3 -123 45 -5 45 -5 3 -82 3 -83 -35 0 c-34 0 -35 2 -38
40 -2 22 -7 41 -13 43 -15 3 -18 -82 -4 -99 14 -17 90 -19 107 -2 9 9 12 73
12 225 0 181 -2 213 -15 213 -12 0 -15 -22 -17 -112 l-3 -113 -30 0 -30 0 -3
113 c-2 92 -5 112 -18 112 -12 0 -14 -19 -12 -122z"/>
<path d="M1500 435 c0 -193 2 -225 15 -225 12 0 15 17 15 90 0 88 0 90 24 90
22 0 25 -6 35 -67 20 -112 20 -113 41 -113 11 0 17 5 15 12 -13 35 -30 169
-23 180 4 7 8 65 8 129 0 132 2 129 -81 129 l-49 0 0 -225z m100 84 l0 -100
-32 3 -33 3 -3 98 -3 97 36 0 35 0 0 -101z"/>
<path d="M1720 435 c0 -193 2 -225 15 -225 13 0 15 32 15 225 0 193 -2 225
-15 225 -13 0 -15 -32 -15 -225z"/>
<path d="M1822 445 c3 -243 1 -235 80 -235 37 0 50 4 58 19 6 12 10 103 10
225 0 199 -1 206 -20 206 -19 0 -20 -7 -20 -210 l0 -210 -35 0 -35 0 0 210 c0
205 0 210 -21 210 -20 0 -20 -4 -17 -215z"/>
</g>
</svg>
